<svg width="561" height="460" viewBox="0 0 561 460" fill="none" xmlns="http://www.w3.org/2000/svg">
<g clip-path="url(#clip0_332_1228)">
<path d="M284.117 419.969L301.728 414.78L296.59 432.441L301.728 450.053L284.117 444.914L266.456 450.053L271.645 432.441L266.456 414.78L284.117 419.969Z" fill="black" stroke="white" stroke-miterlimit="10"/>
</g>
<g clip-path="url(#clip1_332_1228)">
<path d="M97.9601 332.894L129.454 350.054L97.9601 367.351L80.7315 398.776L63.5029 367.351L32.009 350.054L63.5029 332.894L80.7315 301.331L97.9601 332.894Z" fill="black" stroke="white" stroke-miterlimit="10"/>
</g>
<path d="M318.724 188.489C387.202 226.261 445.969 266.282 485.624 300.443C505.455 317.527 520.486 333.127 529.564 346.234C534.104 352.789 537.139 358.696 538.552 363.836C539.964 368.973 539.744 373.297 537.843 376.743C535.942 380.189 532.402 382.681 527.304 384.227C522.203 385.774 515.587 386.359 507.622 386.015C491.692 385.328 470.479 380.936 445.45 373.275C395.401 357.957 330.202 329.599 261.724 291.827C193.246 254.055 134.478 214.034 94.8231 179.872C74.9928 162.789 59.9621 147.189 50.8834 134.082C46.3434 127.527 43.3081 121.619 41.8955 116.48C40.4835 111.343 40.7032 107.019 42.6037 103.573C44.5044 100.128 48.0449 97.6345 53.1431 96.0885C58.2438 94.5418 64.8603 93.9575 72.8261 94.3011C88.7555 94.9884 109.969 99.3799 134.997 107.04C185.046 122.359 250.246 150.717 318.724 188.489Z" stroke="black"/>
<path d="M298.482 225.184C366.96 262.956 425.727 302.976 465.382 337.138C485.213 354.221 500.244 369.822 509.323 382.929C513.862 389.483 516.897 395.391 518.31 400.531C519.722 405.667 519.502 409.992 517.601 413.438C515.7 416.883 512.16 419.376 507.062 420.922C501.961 422.468 495.346 423.053 487.38 422.71C471.45 422.022 450.237 417.631 425.208 409.97C375.159 394.652 309.96 366.293 241.482 328.521C173.004 290.749 114.236 250.729 74.5811 216.567C54.7508 199.484 39.7201 183.884 30.6414 170.777C26.1014 164.222 23.0661 158.314 21.6535 153.174C20.2416 148.038 20.4612 143.714 22.3617 140.268C24.2624 136.822 27.8029 134.329 32.9011 132.783C38.0018 131.236 44.6183 130.652 52.5841 130.996C68.5135 131.683 89.7268 136.075 114.755 143.735C164.804 159.053 230.004 187.412 298.482 225.184Z" stroke="black"/>
<path d="M278.242 261.879C346.72 299.651 405.487 339.672 445.142 373.833C464.973 390.917 480.004 406.517 489.082 419.624C493.622 426.179 496.657 432.086 498.07 437.226C499.482 442.363 499.261 446.687 497.361 450.133C495.46 453.579 491.92 456.071 486.822 457.617C481.721 459.164 475.105 459.748 467.14 459.405C451.21 458.718 429.997 454.326 404.968 446.665C354.919 431.347 289.72 402.989 221.242 365.217C152.764 327.445 93.9963 287.424 54.3411 253.262C34.5108 236.179 19.4801 220.579 10.4013 207.472C5.86137 200.917 2.82609 195.009 1.41344 189.87C0.00152771 184.733 0.221213 180.409 2.12167 176.963C4.02234 173.517 7.56287 171.024 12.6611 169.478C17.7618 167.932 24.3783 167.347 32.3441 167.691C48.2735 168.378 69.4868 172.77 94.5147 180.43C144.564 195.749 209.764 224.107 278.242 261.879Z" stroke="black"/>
<circle cx="104.516" cy="91.7475" r="15.5088" fill="#B9FF66"/>
<circle cx="394.181" cy="422.436" r="10.0057" fill="#B9FF66"/>
<circle cx="54.488" cy="51.7247" r="23.5134" fill="black"/>
<path d="M279.088 370.996C272.78 373.152 265.572 368.88 263.064 361.472L224.043 247.146L246.845 239.346L285.905 353.83C288.412 361.159 285.356 368.841 279.088 370.996Z" fill="black"/>
<path d="M275.679 372.407C273.838 372.407 271.957 371.976 270.155 371.075C266.512 369.272 263.612 365.901 262.202 361.747L223.181 247.42C223.024 246.989 223.26 246.479 223.73 246.322L246.531 238.523C246.766 238.444 247.001 238.444 247.197 238.562C247.393 238.68 247.55 238.836 247.628 239.072L286.688 353.555C289.313 361.315 286.022 369.507 279.323 371.819C278.186 372.211 276.933 372.407 275.679 372.407ZM225.14 247.694L263.887 361.198C265.14 364.921 267.726 367.978 270.939 369.546C273.524 370.8 276.306 371.035 278.813 370.173C284.612 368.174 287.432 360.963 285.082 354.104L246.296 240.443L225.14 247.694Z" fill="black"/>
<path d="M242.809 140.657L169.037 193.294L140.32 223.12L129.037 243.069L128.998 243.226C126.765 246.675 128.058 254.631 132.25 262.744C136.363 270.74 142.162 276.305 146.236 276.619L146.119 276.697L167.784 279.049L208.333 272.582L294.406 241.776L401.399 260.118L402.144 260.157C375.268 255.141 338.99 219.2 312.623 168.367C286.296 117.572 277.912 67.3657 289.469 42.5955H289.43L243.396 139.403L242.809 140.657Z" fill="#B9FF66"/>
<path d="M419.925 257.945C446.368 244.207 441.254 181.928 408.505 118.84C375.755 55.7517 327.77 15.7455 301.327 29.4832C274.885 43.2209 279.998 105.5 312.748 168.588C345.498 231.676 393.483 271.682 419.925 257.945Z" fill="white"/>
<path d="M408.295 261.529C396.777 261.529 382.908 255.102 367.982 242.599C347.648 225.589 327.707 199.369 311.84 168.72C287.824 122.315 277.912 74.7342 286.61 47.4949C289.509 38.4021 294.367 32.0527 300.988 28.6429C314.152 21.9017 332.683 27.6239 353.212 44.7906C373.545 61.8004 393.486 88.0207 409.353 118.67C433.408 165.075 443.32 212.655 434.583 239.895C431.684 248.988 426.826 255.337 420.205 258.747C416.64 260.628 412.644 261.529 408.295 261.529ZM312.976 27.6239C308.941 27.6239 305.18 28.447 301.811 30.2107C295.582 33.3853 291.037 39.4211 288.295 48.0828C279.715 74.9302 289.587 122.001 313.407 168.014C345.846 230.606 393.408 270.661 419.461 257.297C425.69 254.122 430.235 248.086 432.977 239.424C441.557 212.577 431.684 165.506 407.864 119.493C379.617 65.0143 339.97 27.6239 312.976 27.6239Z" fill="black"/>
<path d="M408.295 261.529C396.777 261.529 382.908 255.102 367.982 242.599C347.648 225.589 327.707 199.369 311.84 168.72C287.824 122.315 277.912 74.7341 286.61 47.4948C289.509 38.402 294.367 32.0527 300.988 28.6428C309.803 24.0964 321.321 25.233 334.289 31.8959C346.708 38.2844 360.146 49.6113 373.231 64.6223C373.545 64.975 373.506 65.5237 373.153 65.8373C372.8 66.1508 372.252 66.1116 371.939 65.7589C345.376 35.2665 318.5 21.6272 301.811 30.2106C295.582 33.3852 291.037 39.421 288.295 48.0827C279.715 74.9301 289.587 122.001 313.407 168.014C341.615 222.454 381.302 259.883 408.256 259.883C412.291 259.883 416.052 259.06 419.422 257.296C425.651 254.122 430.196 248.086 432.938 239.424C441.518 212.577 431.645 165.506 407.825 119.493C400.734 105.775 392.742 92.8806 384.162 81.1618C383.888 80.7699 383.966 80.2212 384.358 79.9469C384.75 79.6725 385.298 79.7509 385.572 80.1428C394.231 91.94 402.223 104.913 409.392 118.709C433.408 165.075 443.32 212.655 434.583 239.895C431.684 248.987 426.826 255.337 420.205 258.747C416.64 260.628 412.644 261.529 408.295 261.529Z" fill="black"/>
<path d="M359.928 177.635C366.054 174.453 364.876 160.037 357.296 145.437C349.717 130.837 338.607 121.581 332.482 124.763C326.356 127.946 327.534 142.362 335.113 156.962C342.692 171.562 353.802 180.818 359.928 177.635Z" fill="#B9FF66"/>
<path d="M357.247 179.145C350.509 179.145 341.106 170.444 334.328 157.314C328.687 146.419 326.375 135.209 328.452 128.743C329.196 126.469 330.411 124.862 332.095 124C338.755 120.59 350.156 129.879 358.07 145.125C363.711 156.021 366.023 167.23 363.947 173.697C363.202 175.97 361.988 177.577 360.303 178.44C359.363 178.91 358.344 179.145 357.247 179.145ZM335.151 124.98C334.328 124.98 333.545 125.137 332.879 125.49C331.586 126.156 330.646 127.41 330.058 129.252C328.138 135.288 330.371 146.027 335.817 156.531C343.026 170.444 353.878 179.811 359.48 176.911C360.773 176.245 361.713 174.991 362.301 173.149C364.221 167.074 361.948 156.374 356.542 145.87C350.195 133.681 341.106 124.98 335.151 124.98Z" fill="#B9FF66"/>
<path d="M402.341 246.91C392.233 246.91 380.088 241.266 367.002 230.331C349.216 215.438 331.743 192.471 317.874 165.662C296.836 125.058 288.177 83.3957 295.778 59.527C298.324 51.5316 302.595 45.9661 308.432 42.9483C321.831 36.0894 341.537 44.0065 362.536 64.6613C362.889 65.0141 362.889 65.5236 362.536 65.8763C362.184 66.2291 361.674 66.2291 361.322 65.8763C340.871 45.7702 321.87 37.9315 309.216 44.4768C303.809 47.2595 299.852 52.4722 297.423 60.0365C289.94 83.4741 298.559 124.627 319.402 164.879C344.044 212.498 378.717 245.186 402.301 245.186C405.827 245.186 409.079 244.441 412.057 242.952C417.463 240.169 421.42 234.956 423.849 227.392C431.332 203.954 422.713 162.801 401.87 122.55C395.563 110.4 388.511 98.9947 380.91 88.6868C380.636 88.2949 380.715 87.7462 381.106 87.4718C381.498 87.1975 382.047 87.2759 382.321 87.6678C390 98.0932 397.091 109.538 403.438 121.766C424.476 162.37 433.134 204.033 425.534 227.901C422.987 235.897 418.717 241.462 412.879 244.48C409.667 246.087 406.141 246.91 402.341 246.91Z" fill="black"/>
<path d="M167.824 279.872C167.785 279.872 167.745 279.872 167.745 279.872L146.08 277.52C145.963 277.52 145.845 277.481 145.728 277.403C141.261 276.697 135.62 271.053 131.506 263.136C127.118 254.788 125.825 246.636 128.215 242.795L128.254 242.677L139.538 222.689C139.577 222.61 139.616 222.571 139.655 222.532L168.372 192.706C168.411 192.667 168.451 192.628 168.49 192.588L242.065 140.069L288.608 42.2038C288.726 42.0079 288.882 41.8511 289.117 41.7727C289.352 41.6943 289.588 41.6943 289.783 41.8119C290.214 42.0079 290.41 42.5174 290.214 42.9485C278.422 68.2282 287.746 118.474 313.368 167.936C339.03 217.476 374.799 254.161 402.34 259.217C402.771 259.295 403.085 259.687 403.046 260.158C403.006 260.589 402.615 260.902 402.184 260.942L401.439 260.902C401.4 260.902 401.361 260.902 401.322 260.902L294.524 242.599L208.647 273.327C208.608 273.327 208.529 273.366 208.49 273.366L167.941 279.833C167.902 279.872 167.863 279.872 167.824 279.872ZM146.707 275.874L167.824 278.147L208.177 271.68L294.21 240.914C294.367 240.875 294.485 240.835 294.641 240.875L390.783 257.336C364.808 245.93 334.446 212.263 311.919 168.759C289.548 125.568 279.558 81.7107 285.043 54.001L243.593 141.01C243.515 141.128 243.436 141.245 243.319 141.324L169.626 193.96L141.026 223.63L129.743 243.618C129.743 243.657 129.704 243.696 129.704 243.696C127.667 246.871 129.038 254.71 132.995 262.352C136.874 269.838 142.476 275.482 146.315 275.757C146.472 275.757 146.59 275.796 146.707 275.874Z" fill="black"/>
<path d="M242.926 140.344L289.429 42.5564H289.468C277.911 67.3266 286.334 117.533 312.622 168.328C338.989 219.201 375.267 255.141 402.221 260.079L401.477 260.04L294.64 241.737L292.172 241.306C279.752 239.111 263.18 222.963 251.31 199.917C239.125 176.284 236.971 152.729 242.377 141.519L242.926 140.344Z" fill="white"/>
<path d="M402.222 260.941C402.182 260.941 402.222 260.941 402.222 260.941L401.438 260.902C401.399 260.902 401.36 260.902 401.321 260.902L294.483 242.599L292.015 242.168C278.891 239.855 262.24 223.042 250.526 200.349C237.245 174.559 236.579 151.592 241.594 141.167L242.181 139.991L288.685 42.2429C288.803 42.0469 288.959 41.8902 289.194 41.8118C289.43 41.7334 289.665 41.7334 289.861 41.851C290.291 42.0469 290.487 42.5565 290.291 42.9876C278.499 68.2672 287.823 118.513 313.445 167.975C339.107 217.515 374.876 254.2 402.418 259.256C402.849 259.334 403.162 259.726 403.123 260.197C403.005 260.589 402.653 260.941 402.222 260.941ZM284.963 54.0009L243.709 140.736L243.122 141.911C238.146 152.258 239.596 175.382 252.054 199.526C263.533 221.787 279.714 238.249 292.329 240.443L294.797 240.874L390.743 257.336C364.768 245.93 334.405 212.263 311.878 168.759C289.508 125.568 279.518 81.7105 284.963 54.0009Z" fill="black"/>
<path d="M166.648 279.754C166.609 279.754 166.57 279.754 166.57 279.754L146.041 277.56C145.923 277.56 145.806 277.52 145.688 277.442C141.222 276.736 135.58 271.093 131.467 263.176C127.118 254.788 125.825 246.636 128.215 242.795L128.254 242.678L139.537 222.689C139.772 222.258 140.281 222.14 140.712 222.375C141.143 222.611 141.261 223.12 141.026 223.551L129.743 243.618C129.743 243.657 129.704 243.697 129.704 243.697C127.666 246.871 129.038 254.71 132.994 262.353C136.873 269.838 142.475 275.482 146.315 275.757C146.432 275.757 146.589 275.796 146.667 275.874L166.726 278.03C167.196 278.069 167.549 278.5 167.471 278.97C167.431 279.402 167.079 279.754 166.648 279.754Z" fill="black"/>
<path d="M168.019 278.892C161.359 278.422 152.034 268.976 145.257 255.925C138.087 242.089 136.403 227.784 140.79 222.689L129.076 243.069L128.998 243.226C126.765 246.675 128.058 254.631 132.25 262.744C136.363 270.74 142.162 276.305 146.236 276.619L146.119 276.697L168.019 278.892Z" fill="white"/>
<path d="M168.019 279.754C167.98 279.754 167.98 279.754 167.941 279.754C167.784 279.754 167.588 279.715 167.431 279.715L146.041 277.559C145.923 277.559 145.806 277.52 145.688 277.442C141.222 276.736 135.58 271.092 131.467 263.175C127.118 254.788 125.825 246.636 128.215 242.795L128.254 242.677L138.558 224.727C138.949 223.708 139.459 222.806 140.086 222.062C140.36 221.709 140.869 221.67 141.222 221.905C141.574 222.179 141.692 222.649 141.457 223.041L140.007 225.511C137.696 231.742 139.968 243.971 145.923 255.415C152.387 267.918 161.202 277.05 167.51 277.873L167.98 277.912C168.45 277.951 168.803 278.382 168.764 278.853C168.803 279.401 168.45 279.754 168.019 279.754ZM146.667 275.874L161.633 277.402C155.874 273.718 149.527 266.115 144.473 256.316C139.576 246.871 137.147 237.073 137.539 230.018L129.743 243.618C129.743 243.657 129.704 243.696 129.704 243.696C127.666 246.871 129.038 254.71 132.994 262.352C136.873 269.838 142.475 275.482 146.315 275.756C146.432 275.756 146.589 275.796 146.667 275.874Z" fill="black"/>
<path d="M206.883 272.738L208.606 272.386C199.282 274.345 184.551 260.236 174.169 240.208C163.552 219.749 161.554 199.329 169.076 193.294L168.097 194.273L140.868 222.571C136.402 227.588 138.048 241.972 145.256 255.885C152.191 269.289 162.024 278.853 168.724 278.813L206.883 272.738Z" fill="black"/>
<path d="M168.685 279.715C161.555 279.715 151.643 270.113 144.474 256.317C137.187 242.207 135.345 227.47 140.203 222.022L166.922 194.274C167.392 193.646 167.941 193.098 168.529 192.627C168.881 192.353 169.391 192.392 169.704 192.706C170.017 193.059 170.017 193.568 169.704 193.882L168.176 195.489C162.73 202.778 165.434 221.435 174.954 239.816C185.218 259.648 199.557 273.248 208.333 271.602L208.451 271.563C208.921 271.484 209.352 271.759 209.469 272.229C209.547 272.699 209.273 273.13 208.803 273.248C208.764 273.248 208.725 273.248 208.686 273.287L207.079 273.601H207.04L168.881 279.676C168.803 279.676 168.724 279.715 168.685 279.715ZM164.65 199.134L141.496 223.198C137.187 228.058 139.145 242.246 146.041 255.533C152.779 268.545 162.299 277.951 168.685 277.99L202.378 272.621C193.289 269.407 182.084 257.296 173.426 240.639C165.199 224.766 162.025 208.618 164.65 199.134Z" fill="black"/>
<path d="M332.487 124.745C326.336 127.88 327.237 142.421 335.073 156.922C348.197 181.183 358.658 178.322 359.872 177.891C359.912 177.891 359.912 177.93 359.872 177.93L337.345 196.077C330.724 186.788 324.417 176.441 318.618 165.271C313.094 154.571 308.432 143.91 304.75 133.563L332.487 124.745Z" fill="black"/>
<path d="M337.345 196.939C337.306 196.939 337.267 196.939 337.228 196.939C336.992 196.9 336.797 196.782 336.64 196.586C329.862 187.062 323.555 176.637 317.874 165.702C312.428 155.198 307.727 144.498 303.966 133.916C303.887 133.681 303.887 133.446 304.005 133.25C304.123 133.054 304.279 132.897 304.514 132.819L332.252 124C332.683 123.883 333.153 124.079 333.31 124.51C333.466 124.941 333.31 125.411 332.918 125.607C331.586 126.273 330.607 127.606 330.019 129.566C328.099 135.719 330.45 146.615 335.895 156.609C348.707 180.282 358.579 177.577 359.637 177.185C360.029 177.029 360.499 177.225 360.695 177.577C360.891 177.93 360.812 178.44 360.499 178.714L337.894 196.743C337.737 196.86 337.541 196.939 337.345 196.939ZM305.885 134.112C309.607 144.341 314.152 154.688 319.402 164.879C324.887 175.461 330.998 185.534 337.541 194.822L357.091 179.067C352.624 178.871 344.201 175.539 334.328 157.314C328.608 146.771 326.258 135.641 328.334 128.938C328.608 128.076 328.922 127.332 329.314 126.626L305.885 134.112Z" fill="black"/>
<path d="M448.398 68.8318C466.309 59.4228 473.236 37.3324 463.871 19.4916C454.506 1.65078 432.395 -5.18452 414.485 4.22453C396.574 13.6336 389.647 35.724 399.012 53.5648C408.377 71.4056 430.488 78.2409 448.398 68.8318Z" fill="black"/>
<path d="M414.76 28.4467C416.484 26.0951 419.031 24.645 421.93 24.3314C424.124 24.0962 426.161 24.5666 428.081 25.7424C429.06 26.3303 429.922 27.0749 430.745 27.9764C431.332 26.9182 432.037 25.9775 432.86 25.1937C434.466 23.6259 436.386 22.7245 438.541 22.4893C441.44 22.1758 444.261 23.038 446.455 24.9585C448.61 26.8398 449.981 29.5833 450.333 32.6796C450.686 35.8542 449.824 38.9113 447.63 42.2819C445.671 45.2998 442.694 48.4353 439.246 52.1194C438.071 53.3736 436.739 54.7846 435.368 56.2739C435.015 56.6659 434.506 56.9402 433.957 56.9794C433.409 57.0578 432.899 56.901 432.429 56.5875C430.745 55.4117 429.138 54.3143 427.728 53.3736C423.575 50.5517 419.971 48.1217 417.385 45.6134C414.486 42.8306 412.997 40.0087 412.645 36.8341C412.331 33.7378 413.076 30.7591 414.76 28.4467Z" fill="white"/>
<path d="M550.005 70.8281C563.117 57.711 563.117 36.4441 550.005 23.327C536.893 10.21 515.635 10.21 502.523 23.327C489.411 36.4441 489.411 57.711 502.523 70.8281C515.635 83.9451 536.893 83.9451 550.005 70.8281Z" fill="#B9FF66"/>
<path d="M526.258 81.5149C507.296 81.5149 491.821 66.0728 491.821 47.064C491.821 28.0945 507.257 12.6131 526.258 12.6131C545.259 12.6131 560.695 28.0553 560.695 47.064C560.695 66.0336 545.259 81.5149 526.258 81.5149ZM526.258 14.3376C508.236 14.3376 493.545 28.9959 493.545 47.064C493.545 65.0929 508.197 79.7904 526.258 79.7904C544.28 79.7904 558.971 65.1321 558.971 47.064C558.971 29.0351 544.319 14.3376 526.258 14.3376Z" fill="#B9FF66"/>
<path d="M535.347 50.3953C533.466 50.3953 531.821 51.2968 530.724 52.7077L519.401 48.2789C519.401 48.1221 519.441 48.0045 519.441 47.8477C519.441 47.5734 519.401 47.299 519.362 47.0247L530.959 41.6552C532.017 42.8702 533.584 43.6541 535.347 43.6933C538.559 43.6933 541.223 41.0673 541.223 37.8143C541.223 34.5612 538.598 31.8961 535.347 31.8961C532.134 31.8961 529.47 34.522 529.47 37.7751C529.47 38.0494 529.509 38.3238 529.548 38.5981L517.952 43.9676C516.894 42.7526 515.327 41.9687 513.564 41.9296C510.351 41.9296 507.687 44.5555 507.687 47.8085C507.687 51.0616 510.312 53.7267 513.564 53.7267C515.444 53.7267 517.09 52.8253 518.187 51.4143L529.509 55.8432C529.509 55.9999 529.47 56.1175 529.47 56.2743C529.47 59.5273 532.095 62.1925 535.347 62.1925C538.559 62.1925 541.223 59.5665 541.223 56.3135C541.184 53.0604 538.559 50.4345 535.347 50.3953Z" fill="black"/>
<path d="M535.791 177.289C551.167 166.613 555.03 145.561 544.419 130.268C533.809 114.976 512.744 111.233 497.368 121.909C481.993 132.586 478.13 153.638 488.74 168.93C499.351 184.223 520.416 187.965 535.791 177.289Z" fill="black"/>
<path d="M508.12 165.663L503.184 138.894C502.949 137.522 504.203 136.385 505.535 136.738L534.722 145.008C536.211 145.439 536.563 147.359 535.349 148.3L511.059 166.799C510.001 167.661 508.395 167.073 508.12 165.663Z" fill="white"/>
<path d="M516.249 286.94C535.236 277.693 543.181 254.894 533.995 236.016C524.808 217.138 501.969 209.33 482.982 218.577C463.995 227.824 456.05 250.624 465.236 269.502C474.423 288.38 497.262 296.187 516.249 286.94Z" fill="#B9FF66"/>
<path d="M499.422 291.708C495.347 291.708 491.195 291.081 487.159 289.709C477.287 286.417 469.294 279.519 464.671 270.191C460.048 260.902 459.343 250.359 462.673 240.483C469.569 220.141 491.743 209.05 512.155 215.83C522.027 219.122 530.019 226.02 534.642 235.348C539.265 244.637 539.971 255.18 536.64 265.057C531.077 281.361 515.759 291.708 499.422 291.708ZM499.814 215.595C484.182 215.595 469.529 225.472 464.24 241.071C461.067 250.516 461.733 260.589 466.16 269.447C470.587 278.343 478.227 284.967 487.669 288.102C507.179 294.569 528.374 283.987 534.956 264.547C538.129 255.102 537.463 245.029 533.036 236.171C528.609 227.275 520.969 220.651 511.528 217.515C507.649 216.183 503.692 215.595 499.814 215.595Z" fill="black"/>
<path d="M519.09 246.597C518.699 256.121 502.597 278.383 498.757 283.595C498.365 284.144 497.543 284.105 497.19 283.517C494.761 279.598 486.73 266.429 482.538 255.768C480.853 251.535 479.795 247.694 479.913 244.99C480.344 234.173 489.472 225.746 500.285 226.177C511.098 226.687 519.521 235.78 519.09 246.597Z" fill="black"/>
<path d="M505.838 252.165C509.341 248.66 509.341 242.978 505.838 239.473C502.334 235.968 496.654 235.968 493.15 239.473C489.647 242.978 489.647 248.66 493.15 252.165C496.654 255.67 502.334 255.67 505.838 252.165Z" fill="#B9FF66"/>
<defs>
<clipPath id="clip0_332_1228">
<rect width="36" height="36" fill="white" transform="translate(266.108 414.431) scale(1.00057)"/>
</clipPath>
<clipPath id="clip1_332_1228">
<rect width="70.3259" height="70.3259" fill="white" transform="translate(80.7315 300.366) scale(1.00057) rotate(45)"/>
</clipPath>
</defs>
</svg>
