<svg width="124" height="48" viewBox="100 0 124 48" fill="none" xmlns="http://www.w3.org/2000/svg">
<g style="mix-blend-mode:luminosity">
<path fill-rule="evenodd" clip-rule="evenodd" d="M176.651 37.8069C169.471 42.4973 159.064 44.9998 150.104 44.9998C137.54 44.9998 126.229 40.8814 117.673 34.0316C117 33.493 117.603 32.7589 118.409 33.1784C127.644 37.9403 139.062 40.8051 150.857 40.8051C158.811 40.8051 167.562 39.3465 175.607 36.3196C176.823 35.862 177.839 37.0251 176.651 37.8069Z" fill="#FF9900"/>
<path fill-rule="evenodd" clip-rule="evenodd" d="M179.636 34.78C178.722 33.7409 173.569 34.2891 171.257 34.5322C170.552 34.6084 170.444 34.065 171.079 33.6741C175.183 31.1144 181.916 31.8533 182.701 32.7113C183.487 33.574 182.497 39.5563 178.641 42.4115C178.049 42.8501 177.485 42.6165 177.748 42.035C178.614 40.1187 180.556 35.8239 179.636 34.78Z" fill="#FF9900"/>
<path fill-rule="evenodd" clip-rule="evenodd" d="M171.418 15.6036V13.1154C171.418 12.7388 171.741 12.4862 172.128 12.4862H184.697C185.101 12.4862 185.423 12.7436 185.423 13.1154V15.2461C185.418 15.6036 185.079 16.0708 184.477 16.8096L177.964 25.0513C180.384 24.9988 182.939 25.3182 185.133 26.4145C185.628 26.6624 185.762 27.0247 185.8 27.3822V30.0373C185.8 30.3995 185.348 30.8238 184.875 30.6045C181.008 28.8074 175.871 28.612 171.596 30.6236C171.16 30.8333 170.703 30.4138 170.703 30.0516V27.53C170.703 27.1248 170.708 26.4336 171.165 25.8187L178.711 16.2281H172.144C171.741 16.2281 171.418 15.9754 171.418 15.6036Z" fill="black"/>
<path fill-rule="evenodd" clip-rule="evenodd" d="M125.568 31.1289H121.744C121.379 31.105 121.088 30.8619 121.061 30.5521V13.1583C121.061 12.8104 121.389 12.5339 121.798 12.5339H125.364C125.735 12.5482 126.031 12.8008 126.058 13.1154V15.3892H126.128C127.058 13.1917 128.806 12.1669 131.162 12.1669C133.555 12.1669 135.05 13.1917 136.126 15.3892C137.051 13.1917 139.154 12.1669 141.407 12.1669C143.01 12.1669 144.763 12.7532 145.834 14.0688C147.044 15.5322 146.796 17.6581 146.796 19.5219L146.791 30.4997C146.791 30.8476 146.463 31.1289 146.054 31.1289H142.236C141.854 31.105 141.547 30.8333 141.547 30.4997V21.2808C141.547 20.5468 141.623 18.7163 141.44 18.0204C141.155 16.8526 140.299 16.5236 139.192 16.5236C138.266 16.5236 137.298 17.0718 136.906 17.9489C136.513 18.826 136.551 20.2941 136.551 21.2808V30.4997C136.551 30.8476 136.223 31.1289 135.814 31.1289H131.995C131.608 31.105 131.307 30.8333 131.307 30.4997L131.302 21.2808C131.302 19.3408 131.662 16.4855 128.946 16.4855C126.198 16.4855 126.305 19.2693 126.305 21.2808V30.4997C126.305 30.8476 125.977 31.1289 125.568 31.1289Z" fill="black"/>
<path fill-rule="evenodd" clip-rule="evenodd" d="M196.244 12.1669C201.918 12.1669 204.989 16.4855 204.989 21.9768C204.989 27.2821 201.596 31.4911 196.244 31.4911C190.672 31.4911 187.639 27.1725 187.639 21.7909C187.639 16.3759 190.71 12.1669 196.244 12.1669ZM196.276 15.7181C193.458 15.7181 193.281 19.1215 193.281 21.2427C193.281 23.3686 193.243 27.9066 196.244 27.9066C199.208 27.9066 199.347 24.2457 199.347 22.0149C199.347 20.5468 199.278 18.7926 198.777 17.4007C198.347 16.19 197.492 15.7181 196.276 15.7181Z" fill="black"/>
<path fill-rule="evenodd" clip-rule="evenodd" d="M212.347 31.1289H208.539C208.157 31.105 207.851 30.8333 207.851 30.4997L207.845 13.1011C207.878 12.7818 208.195 12.5339 208.582 12.5339H212.126C212.46 12.5482 212.734 12.7484 212.809 13.0201V15.6799H212.879C213.95 13.3013 215.45 12.1669 218.091 12.1669C219.807 12.1669 221.479 12.715 222.555 14.2166C223.555 15.6084 223.555 17.9489 223.555 19.6315V30.5807C223.512 30.8858 223.195 31.1289 222.818 31.1289H218.984C218.634 31.105 218.344 30.8762 218.306 30.5807V21.1331C218.306 19.2311 218.553 16.4474 215.913 16.4474C214.982 16.4474 214.127 17.0003 213.702 17.8393C213.164 18.9022 213.095 19.9605 213.095 21.1331V30.4997C213.089 30.8476 212.756 31.1289 212.347 31.1289Z" fill="black"/>
<path fill-rule="evenodd" clip-rule="evenodd" d="M161.399 22.8204C161.399 24.1408 161.436 25.2419 160.683 26.4146C160.075 27.3679 159.107 27.9542 158.037 27.9542C156.569 27.9542 155.708 26.9627 155.708 25.4993C155.708 22.6107 158.629 22.0864 161.399 22.0864V22.8204ZM165.255 31.0812C165.002 31.2814 164.636 31.2957 164.351 31.1622C163.082 30.2279 162.851 29.7942 162.157 28.9028C160.059 30.7999 158.57 31.3672 155.854 31.3672C152.632 31.3672 150.131 29.6083 150.131 26.0857C150.131 23.3353 151.809 21.4619 154.208 20.5467C156.284 19.7364 159.183 19.5934 161.399 19.3693V18.9308C161.399 18.1252 161.468 17.1719 160.931 16.476C160.468 15.8515 159.575 15.5941 158.785 15.5941C157.327 15.5941 156.031 16.2567 155.714 17.6295C155.649 17.9346 155.396 18.2349 155.047 18.2492L151.341 17.8964C151.029 17.8345 150.68 17.6104 150.771 17.1862C151.621 13.2012 155.687 12 159.323 12C161.183 12 163.614 12.4385 165.083 13.6874C166.944 15.2271 166.766 17.2815 166.766 19.5171V24.7986C166.766 26.386 167.508 27.0819 168.207 27.9399C168.449 28.245 168.503 28.612 168.191 28.8408C167.411 29.4176 166.024 30.4901 165.26 31.0907L165.255 31.0812Z" fill="black"/>
<path fill-rule="evenodd" clip-rule="evenodd" d="M111.267 22.8204C111.267 24.1408 111.305 25.2419 110.552 26.4145C109.944 27.3679 108.982 27.9542 107.906 27.9542C106.438 27.9542 105.583 26.9627 105.583 25.4993C105.583 22.6107 108.503 22.0864 111.267 22.0864V22.8204ZM115.124 31.0812C114.871 31.2814 114.505 31.2957 114.22 31.1622C112.951 30.2279 112.725 29.7941 112.026 28.9028C109.928 30.7999 108.444 31.3672 105.722 31.3672C102.506 31.3672 100 29.6082 100 26.0856C100 23.3352 101.683 21.4619 104.077 20.5467C106.153 19.7364 109.052 19.5934 111.267 19.3693V18.9308C111.267 18.1252 111.337 17.1719 110.805 16.4759C110.337 15.8515 109.444 15.5941 108.659 15.5941C107.202 15.5941 105.9 16.2567 105.583 17.6295C105.518 17.9346 105.265 18.2349 104.921 18.2492L101.21 17.8964C100.898 17.8345 100.554 17.6104 100.64 17.1862C101.495 13.2012 105.556 12 109.191 12C111.052 12 113.483 12.4385 114.952 13.6874C116.812 15.2271 116.635 17.2815 116.635 19.5171V24.7986C116.635 26.3859 117.377 27.0819 118.076 27.9399C118.324 28.245 118.378 28.612 118.066 28.8408C117.286 29.4176 115.898 30.4901 115.134 31.0907L115.124 31.0812Z" fill="black"/>
</g>
</svg>
