<svg width="127" height="48" viewBox="320 0 127 48" fill="none" xmlns="http://www.w3.org/2000/svg">
<g style="mix-blend-mode:luminosity" clip-path="url(#clip0_dribbble)">
<path fill-rule="evenodd" clip-rule="evenodd" d="M445.59 30.5633C440.335 38.4606 432.011 36.1691 429.512 34.3749C428.448 35.0147 426.582 36.417 424.095 36.255C418.797 35.9104 416.9 29.2007 416.9 29.2007C416.938 29.2275 415.322 29.6949 414.448 29.6866C414.437 31.6542 412.518 36.3546 407.339 36.2945C401.527 36.2273 400.345 28.5531 400.345 28.5531C400.345 28.5531 399.767 29.2649 397.568 29.9739C397.678 28.4622 397.598 36.0644 390.632 36.1761C385.125 36.2646 383.638 28.4348 383.638 28.4348C383.638 28.4348 382.683 29.3143 380.831 29.6194C380.949 28.0831 380.758 36.2019 373.791 36.1761C369.083 36.1588 367.474 31.353 367.599 30.686C367.759 29.8359 366.008 36.2957 361.435 36.195C359.548 36.1459 358.141 34.9349 357.258 33.3204C356.076 34.5189 354.36 36.195 352.435 36.195C348.98 36.195 347.457 33.6337 347.715 26.3179C347.737 25.4502 347.666 25.109 346.693 24.9792C346.109 24.8928 345.511 24.7292 344.878 24.643C344.675 25.243 342.954 35.9998 337.037 36.204C335.052 36.2725 333.967 34.7485 333.075 33.6174C331.709 35.2194 329.905 36.255 327.336 36.255C322.983 36.255 320.018 33.1365 320.018 29.2895C320.018 25.4425 322.983 22.3242 327.336 22.3242C328.105 22.3242 328.321 22.422 329.024 22.6038C327.579 10.9365 330.993 9.11303 333.98 9.11303C336.848 9.11303 341.747 15.012 334.853 29.9751C336.384 34.4381 339.683 34.1857 341.269 24.9982C341.592 23.1307 340.729 20.6105 342.071 20.2588C344.524 19.616 344.784 21.5446 345.935 21.866C347.151 22.2056 347.861 22.1724 349.029 22.3885C351.024 22.7339 351.802 23.6838 351.559 25.7996C351.267 28.4767 350.757 32.3732 352.314 32.8481C353.437 33.1931 355.487 31.1293 355.846 30.0001C356.206 28.871 356.281 28.4845 356.313 27.6563C356.362 25.8861 356.423 24.5886 356.763 23.2499C356.909 22.7319 357.075 22.3888 357.736 22.3654C358.281 22.3531 359.276 22.2079 359.714 22.51C360.297 22.8988 360.225 23.2933 360.157 24.3316C359.479 39.1353 364.704 31.7452 366.263 25.8279C365.708 19.1369 366.089 9.23555 370.82 9.06949C373.28 8.98313 374.368 10.7301 374.487 12.034C374.826 15.7168 372.93 21.8172 370.437 25.9197C369.012 34.2907 376.667 35.9459 377.891 29.2642C375.888 28.4202 373.724 25.0044 375.485 23.3397C376.473 22.4055 380.587 23.7476 380.654 26.6748C382.672 26.1965 382.942 25.1867 382.97 25.354C382.415 18.663 382.93 9.23564 387.661 9.06957C390.121 8.98321 391.208 10.7301 391.328 12.0341C391.666 15.7168 389.771 21.8173 387.278 25.9199C385.853 34.2907 393.508 35.946 394.732 29.2643C393.249 29.0107 390.119 25.3775 391.925 23.3398C392.89 22.2509 396.989 24.5154 397.447 26.7717C399.386 26.2855 399.649 25.3078 399.677 25.4724C399.122 18.7816 399.637 9.35422 404.368 9.18815C406.828 9.10179 407.915 10.8487 408.035 12.1527C408.374 15.8354 406.478 21.936 403.985 26.0385C402.56 34.4095 410.215 36.0644 411.439 29.3827C409.401 29.082 406.505 25.2458 408.836 23.2833C409.767 22.4992 413.325 24.5346 414.158 26.8568C415.315 26.8173 416.036 26.4636 416.19 26.4279C414.343 18.573 415.718 9.14836 420.807 9.06969C423.558 9.02721 426.248 10.3877 425.067 17.8606C423.94 24.9906 419.89 27.9827 419.9 28.0285C420.135 28.8827 422.214 36.0312 427.447 32.2594C427.176 31.7157 426.905 31.1603 426.753 30.4874C425.886 26.5677 427.59 22.1404 432.221 21.4249C434.874 21.0149 437.374 22.1598 437.769 24.741C438.419 28.9645 434.116 32.0233 432.48 32.6868C431.747 32.3178 439.123 36.5107 443.501 28.108C443.755 27.6282 444.061 27.6689 444.457 27.9162C444.737 28.0908 446.332 29.4299 445.59 30.5633ZM330.502 28.2517C330.279 27.6615 329.822 26.361 329.66 25.7976C328.77 25.1114 328.135 25 326.992 25C324.453 25 322.958 27.0809 322.958 29.3247C322.958 31.5684 324.586 33.6496 327.126 33.6496C329.326 33.6496 331.001 32.3235 331.512 30.4462C331.155 29.7143 330.8 29.0417 330.502 28.2517ZM333.918 12.2015C332.134 12.2015 331.528 15.974 331.646 19.1924C331.75 22.0378 332.647 24.5428 333.112 25.6653C333.23 25.8059 333.208 25.7144 333.314 25.8636C336.412 19.8472 335.127 12.2015 333.918 12.2015ZM371.074 12.32C368.768 12.0855 368.783 20.6001 369.069 22.51C370.267 20.8118 372.348 12.7772 371.074 12.32ZM387.915 12.32C385.609 12.0855 385.624 20.6001 385.91 22.51C387.108 20.8118 389.189 12.7772 387.915 12.32ZM404.622 12.4384C402.316 12.204 402.331 20.7186 402.617 22.6287C403.815 20.9303 405.896 12.8956 404.622 12.4384ZM421.062 11.8215C417.469 12.461 418.306 23.0789 418.851 24.9412C423.084 19.789 423.171 11.628 421.062 11.8215ZM434.528 25.0903C434.346 24.4133 433.432 24.0515 432.802 24.1407C430.997 24.359 429.248 26.3505 429.925 29.3824C430.076 30.0576 430.453 30.6792 430.447 30.6585C434.485 28.2577 434.828 26.3659 434.528 25.0903ZM358.444 20.0218C357.928 20.0219 357.424 19.8864 356.995 19.6326C356.566 19.3787 356.232 19.0179 356.035 18.5957C355.837 18.1735 355.786 17.7089 355.886 17.2607C355.987 16.8124 356.235 16.4007 356.6 16.0775C356.964 15.7543 357.429 15.5342 357.935 15.4451C358.44 15.3559 358.965 15.4016 359.441 15.5765C359.917 15.7514 360.324 16.0476 360.611 16.4276C360.897 16.8076 361.05 17.2544 361.05 17.7114C361.05 18.0148 360.983 18.3152 360.852 18.5955C360.721 18.8758 360.529 19.1305 360.287 19.345C360.045 19.5596 359.758 19.7298 359.441 19.8459C359.125 19.962 358.786 20.0218 358.444 20.0218Z" fill="#0D0C22"/>
</g>
<defs>
<clipPath id="clip0_dribbble">
<rect width="126.369" height="48" fill="white" transform="translate(320.018)"/>
</clipPath>
</defs>
</svg>
