<svg width="129" height="48" viewBox="542 0 129 48" fill="none" xmlns="http://www.w3.org/2000/svg">
<g style="mix-blend-mode:luminosity" clip-path="url(#clip1_hubspot)">
<path d="M556.181 13.1064V22.1942H546.764V13.1064H542.293V34.7997H546.764V26.0071H556.181V34.7997H560.651V13.1064H556.181Z" fill="#33475B"/>
<path d="M574.96 27.7869C574.96 28.6563 574.57 29.4901 573.876 30.1049C573.183 30.7196 572.242 31.065 571.261 31.065C570.28 31.065 569.339 30.7196 568.646 30.1049C567.952 29.4901 567.562 28.6563 567.562 27.7869V18.4953H563.322V27.7869C563.322 29.6513 564.157 31.4394 565.645 32.7578C567.132 34.0761 569.15 34.8168 571.253 34.8168C573.357 34.8168 575.375 34.0761 576.862 32.7578C578.349 31.4394 579.185 29.6513 579.185 27.7869V18.4953H574.96V27.7869Z" fill="#33475B"/>
<path d="M606.381 19.4529C606.381 17.5484 607.803 16.9446 609.36 16.9446C610.615 16.9446 612.273 17.7911 613.358 18.8181L616.135 15.9176C614.749 14.2558 611.936 13.1065 609.634 13.1065C605.034 13.1065 601.707 15.4944 601.707 19.4529C601.707 26.7973 611.835 24.4676 611.835 28.5775C611.835 29.8453 610.447 30.9655 608.856 30.9655C606.348 30.9655 605.536 29.8783 604.383 28.729L601.301 31.5693C603.273 33.7145 605.704 34.8036 608.618 34.8036C612.988 34.8036 616.503 32.3866 616.503 28.6086C616.503 20.4547 606.375 22.9882 606.375 19.4529" fill="#33475B"/>
<path d="M669.042 31.3341C666.536 31.3341 665.824 30.3731 665.824 28.9015V22.3881H669.719V19.0877H665.824V14.7331L661.525 16.4435V29.7111C661.525 33.1047 664.166 34.815C667.789 34.815C668.358 34.8242 668.925 34.7839 669.485 34.6947L670.534 31.272C670.061 31.3011 669.518 31.3302 669.042 31.3302" fill="#33475B"/>
<path d="M591.102 18.6049C589.002 18.6049 587.536 19.1446 586.119 20.3774V13.2369H581.872V26.4715C581.872 31.4259 585.913 34.8195 590.454 34.8195C595.492 34.8195 599.924 31.3658 599.924 26.7141C599.924 22.1208 595.845 18.6068 591.102 18.6068V18.6049ZM591.076 31.0318C590.123 31.0318 589.191 30.7813 588.399 30.312C587.606 29.8427 586.989 29.1757 586.624 28.3952C586.259 27.6148 586.164 26.756 586.35 25.9275C586.536 25.099 586.995 24.3379 587.669 23.7406C588.343 23.1433 589.201 22.7365 590.136 22.5717C591.071 22.4069 592.04 22.4915 592.92 22.8148C593.801 23.138 594.554 23.6855 595.083 24.3878C595.613 25.0902 595.895 25.916 595.895 26.7607C595.895 27.8935 595.388 28.9799 594.484 29.7809C593.58 30.5818 592.354 31.0318 591.076 31.0318Z" fill="#33475B"/>
<path d="M637.221 26.5153C637.221 21.8559 632.798 18.4099 627.751 18.4099C623.21 18.4099 619.169 21.8035 619.169 26.758V40.0003H623.416V32.8501C624.831 34.0809 626.299 34.6226 628.398 34.6226C633.14 34.6226 637.219 31.1106 637.219 26.5153H637.221ZM633.199 26.4687C633.199 27.3134 632.916 28.1392 632.387 28.8416C631.857 29.544 631.105 30.0914 630.224 30.4147C629.344 30.7379 628.375 30.8225 627.44 30.6577C626.505 30.4929 625.646 30.0861 624.972 29.4888C624.298 28.8915 623.839 28.1304 623.654 27.3019C623.468 26.4734 623.563 25.6146 623.928 24.8342C624.292 24.0538 624.91 23.3867 625.703 22.9174C626.495 22.4481 627.427 22.1976 628.38 22.1976C629.658 22.1976 630.884 22.6476 631.788 23.4486C632.691 24.2495 633.199 25.3359 633.199 26.4687Z" fill="#33475B"/>
<path d="M650.9 18.3496V14.6066C651.458 14.3756 651.93 14.0088 652.262 13.5489C652.594 13.089 652.772 12.555 652.775 12.009V11.9216C652.772 11.1587 652.429 10.4276 651.821 9.88807C651.212 9.34858 650.387 9.04458 649.526 9.04254H649.428C648.567 9.04458 647.742 9.34858 647.133 9.88807C646.525 10.4276 646.182 11.1587 646.179 11.9216V12.009C646.182 12.555 646.36 13.089 646.692 13.5489C647.024 14.0088 647.496 14.3756 648.054 14.6066V18.3496C646.45 18.5671 644.938 19.1565 643.673 20.0581L632.077 12.0614C632.159 11.7976 632.204 11.5256 632.208 11.2519C632.209 10.6095 631.995 9.98128 631.593 9.44673C631.191 8.91217 630.619 8.49527 629.95 8.24873C629.281 8.00219 628.544 7.93708 627.833 8.06166C627.122 8.18623 626.468 8.49487 625.955 8.94857C625.442 9.40226 625.092 9.98063 624.95 10.6105C624.808 11.2404 624.88 11.8936 625.156 12.4873C625.433 13.0811 625.902 13.5889 626.504 13.9464C627.106 14.3039 627.814 14.4952 628.539 14.496C629.176 14.4939 629.801 14.3432 630.351 14.0591L641.752 21.9257C640.725 23.2989 640.19 24.9146 640.215 26.5619C640.24 28.2091 640.826 29.8113 641.895 31.1591L638.425 34.2343C638.146 34.1557 637.856 34.1138 637.564 34.11C636.968 34.11 636.386 34.2666 635.891 34.5599C635.395 34.8532 635.009 35.2701 634.781 35.7579C634.553 36.2457 634.494 36.7824 634.61 37.3002C634.726 37.818 635.013 38.2937 635.434 38.667C635.855 39.0403 636.392 39.2946 636.976 39.3976C637.561 39.5006 638.166 39.4477 638.717 39.2457C639.267 39.0436 639.737 38.7015 640.068 38.2625C640.399 37.8235 640.576 37.3074 640.576 36.7794C640.572 36.5204 640.525 36.2633 640.436 36.0165L643.868 32.9743C644.989 33.7328 646.29 34.2544 647.673 34.4993C649.055 34.7441 650.483 34.7058 651.846 34.3871C653.209 34.0685 654.472 33.478 655.539 32.6607C656.606 31.8434 657.447 30.8209 658 29.6713C658.553 28.5217 658.802 27.2754 658.728 26.0275C658.655 24.7796 658.26 23.5631 657.575 22.4709C656.89 21.3786 655.933 20.4395 654.776 19.7253C653.619 19.0111 652.293 18.5405 650.9 18.3496ZM649.478 30.6621C648.539 30.6621 647.621 30.4152 646.84 29.9527C646.059 29.4902 645.45 28.8329 645.091 28.0638C644.731 27.2947 644.637 26.4484 644.82 25.632C645.004 24.8155 645.456 24.0655 646.12 23.4769C646.784 22.8883 647.63 22.4874 648.552 22.325C649.473 22.1626 650.428 22.2459 651.295 22.5645C652.163 22.8831 652.905 23.4225 653.427 24.1147C653.949 24.8069 654.227 25.6206 654.227 26.4531C654.227 27.5694 653.727 28.6399 652.836 29.4293C651.946 30.2186 650.738 30.6621 649.478 30.6621Z" fill="#FF7A59"/>
</g>
<defs>
<clipPath id="clip1_hubspot">
<rect width="128.626" height="48" fill="white" transform="translate(542.293)"/>
</clipPath>
</defs>
</svg>
