<svg width="126" height="48" viewBox="1008 0 126 48" fill="none" xmlns="http://www.w3.org/2000/svg">
<g style="mix-blend-mode:luminosity" clip-path="url(#clip3_netflix)">
<path d="M1025.5 38.0663C1023.62 38.3595 1021.7 38.4474 1019.72 38.6816L1013.67 22.9786V39.3555C1011.78 39.5313 1010.06 39.7656 1008.28 40V10H1013.3L1020.18 27.0217V10H1025.5V38.0663ZM1035.91 20.9863C1037.96 20.9863 1041.1 20.8984 1042.99 20.8984V25.5858C1040.64 25.5858 1037.9 25.5858 1035.91 25.6737V32.6465C1039.02 32.4708 1042.13 32.2362 1045.27 32.1483V36.6597L1030.62 37.6854V10H1045.27V14.6875H1035.91V20.9863ZM1064.94 14.6876H1059.45V36.2501C1057.66 36.2501 1055.88 36.2501 1054.16 36.3085V14.6876H1048.67V10H1064.94L1064.94 14.6876ZM1073.53 20.6642H1080.77V25.3516H1073.53V35.9864H1068.34V10H1083.12V14.6875H1073.53V20.6642ZM1091.71 31.8848C1094.72 31.9432 1097.76 32.1486 1100.7 32.2948V36.9238C1095.98 36.66 1091.25 36.3966 1086.42 36.3085V10H1091.71V31.8848ZM1105.17 37.2461C1106.85 37.3341 1108.64 37.422 1110.35 37.5975V10H1105.17V37.2461ZM1133.53 10L1126.82 24.2676L1133.53 40C1131.54 39.7656 1129.56 39.4433 1127.58 39.1503L1123.78 30.4786L1119.91 38.4474C1117.99 38.1542 1116.14 38.0663 1114.22 37.8319L1121.03 24.0917L1114.88 10H1120.57L1124.04 17.8809L1127.74 10H1133.53V10Z" fill="#D81F26"/>
</g>
<defs>
<clipPath id="clip3_netflix">
<rect width="125.241" height="48" fill="white" transform="translate(1008.28)"/>
</clipPath>
</defs>
</svg>
