<svg width="146" height="48" viewBox="766 0 146 48" fill="none" xmlns="http://www.w3.org/2000/svg">
<g style="mix-blend-mode:luminosity" clip-path="url(#clip2_notion)">
<path d="M817.525 34.7749V20.2199H817.818L829.772 34.7749H833.533V13.4006H829.354V27.919H829.061L817.107 13.4006H813.345V34.7749H817.525ZM845.362 35.1049C850.879 35.1049 854.265 31.9519 854.265 26.6725C854.265 21.4297 850.879 18.2401 845.362 18.2401C839.886 18.2401 836.459 21.4297 836.459 26.6725C836.501 31.9519 839.845 35.1049 845.362 35.1049ZM845.362 32.0252C842.436 32.0252 840.764 30.0821 840.764 26.6725C840.764 23.2995 842.436 21.3198 845.362 21.3198C848.288 21.3198 849.959 23.2995 849.959 26.6725C849.959 30.0821 848.288 32.0252 845.362 32.0252ZM858.068 14.6105V18.68H855.142V21.6131H858.068V30.4487C858.068 33.6017 859.74 34.8483 864.003 34.8483C864.797 34.8483 865.592 34.7749 866.219 34.6649V31.8053C865.717 31.8419 865.383 31.8786 864.797 31.8786C863.042 31.8786 862.248 31.182 862.248 29.5688V21.6131H866.219V18.68H862.248V14.6105H858.068ZM868.726 34.7749H872.906V18.5701H868.726V34.7749ZM870.816 15.8937C872.196 15.8937 873.324 14.9038 873.324 13.6939C873.324 12.4474 872.196 11.4575 870.816 11.4575C869.437 11.4575 868.308 12.4474 868.308 13.6939C868.308 14.9038 869.437 15.8937 870.816 15.8937ZM884.358 35.1049C889.876 35.1049 893.261 31.9519 893.261 26.6725C893.261 21.4297 889.876 18.2401 884.358 18.2401C878.883 18.2401 875.456 21.4297 875.456 26.6725C875.456 31.9519 878.799 35.1049 884.358 35.1049ZM884.358 32.0252C881.433 32.0252 879.761 30.0821 879.761 26.6725C879.761 23.2995 881.433 21.3198 884.358 21.3198C887.242 21.3198 888.956 23.2995 888.956 26.6725C888.914 30.0821 887.242 32.0252 884.358 32.0252ZM895.727 34.7749H899.907V25.3526C899.907 22.9696 901.495 21.4664 903.961 21.4664C906.511 21.4664 907.681 22.7129 907.681 25.1693V34.7749H911.861V24.2894C911.861 20.4032 909.604 18.2401 905.508 18.2401C902.749 18.2401 900.91 19.34 900.032 21.1731H899.74V18.5701H895.685C895.727 18.5701 895.727 34.7749 895.727 34.7749Z" fill="black"/>
<path fill-rule="evenodd" clip-rule="evenodd" d="M773.269 12.0326C774.486 12.9024 774.926 12.8337 777.203 12.6964L798.66 11.5519C799.126 11.5519 798.738 11.1399 798.583 11.0941L795.011 8.82806C794.338 8.37028 793.406 7.82093 791.672 7.95826L770.914 9.30874C770.163 9.37741 770.008 9.72075 770.318 9.97254L773.269 12.0326ZM774.563 16.4502V36.4098C774.563 37.4857 775.159 37.8748 776.53 37.8061L800.11 36.593C801.482 36.5243 801.637 35.7918 801.637 34.922V15.0998C801.637 14.23 801.249 13.7493 800.421 13.818L775.78 15.0998C774.874 15.1684 774.563 15.5804 774.563 16.4502ZM797.832 17.5261C797.988 18.1212 797.832 18.7392 797.159 18.8079L796.02 19.0139V33.7547C795.037 34.2125 794.131 34.4871 793.354 34.4871C792.138 34.4871 791.827 34.1438 790.921 33.1367L783.493 22.8135V32.7933L785.848 33.2511C785.848 33.2511 785.848 34.4642 783.959 34.4642L778.73 34.7389C778.575 34.4642 778.73 33.8005 779.248 33.6631L780.62 33.3198V20.1355L778.73 19.9981C778.575 19.403 778.963 18.5332 780.025 18.4645L785.641 18.1212L793.38 28.5588V19.3343L791.413 19.1283C791.258 18.3959 791.879 17.8465 792.63 17.7778L797.832 17.5261ZM769.18 7.47759L790.792 6.08133C793.432 5.87532 794.131 6.01266 795.787 7.08847L802.672 11.3688C803.811 12.1013 804.199 12.3073 804.199 13.1084V36.6159C804.199 38.0808 803.604 38.9506 801.482 39.0879L776.401 40.4384C774.796 40.5071 774.046 40.3011 773.217 39.3626L768.118 33.5258C767.212 32.45 766.824 31.6488 766.824 30.7104V9.81231C766.824 8.59917 767.445 7.61492 769.18 7.47759Z" fill="black"/>
</g>
<defs>
<clipPath id="clip2_notion">
<rect width="145.551" height="48" fill="white" transform="translate(766.824)"/>
</clipPath>
</defs>
</svg>
