<svg width="111" height="48" viewBox="1229 0 111 48" fill="none" xmlns="http://www.w3.org/2000/svg">
<g style="mix-blend-mode:luminosity" clip-path="url(#clip4_zoom)">
<path fill-rule="evenodd" clip-rule="evenodd" d="M1319.36 20.5972C1319.78 21.2429 1319.92 21.9774 1319.97 22.8032L1320.03 23.9039V31.6007L1320.09 32.7025C1320.21 34.502 1321.71 35.8325 1323.75 35.9457L1324.99 36V23.9039L1325.05 22.8032C1325.1 21.9867 1325.24 21.2382 1325.67 20.588C1326.1 19.921 1326.73 19.3677 1327.49 18.9835C1328.24 18.5993 1329.09 18.3978 1329.97 18.3992C1330.84 18.4006 1331.69 18.6049 1332.44 18.9915C1333.2 19.3781 1333.82 19.9335 1334.25 20.6018C1334.68 21.2475 1334.81 21.9959 1334.86 22.8032L1334.92 23.9005V31.6007L1334.98 32.7025C1335.11 34.5112 1336.59 35.8418 1338.65 35.9457L1339.88 36V22.8032C1339.88 20.4697 1338.84 18.2317 1336.98 16.5813C1335.12 14.9309 1332.59 14.0032 1329.96 14.0023C1328.55 14.001 1327.16 14.2662 1325.87 14.7803C1324.59 15.2944 1323.44 16.0454 1322.51 16.9833C1321.58 16.0458 1320.43 15.2949 1319.15 14.7807C1317.87 14.2665 1316.47 14.0007 1315.06 14.0012C1313 14.0012 1311.09 14.5555 1309.5 15.513C1308.54 14.5567 1306.37 14.0012 1305.13 14.0012V36L1306.37 35.9457C1308.45 35.8244 1309.95 34.5297 1310.03 32.7025L1310.1 31.6007V23.9039L1310.16 22.8032C1310.21 21.9728 1310.34 21.2429 1310.77 20.5926C1311.2 19.9261 1311.83 19.3728 1312.58 18.9882C1313.34 18.6035 1314.19 18.4009 1315.06 18.4005C1315.93 18.4006 1316.79 18.6037 1317.54 18.9893C1318.3 19.3748 1318.92 19.9294 1319.36 20.5972ZM1234.39 35.9469L1235.63 36H1254.25L1254.19 34.9028C1254.02 33.0941 1252.57 31.7728 1250.53 31.655L1249.28 31.6007H1238.12L1253.01 18.3993L1252.94 17.3032C1252.85 15.4761 1251.34 14.1559 1249.28 14.0554L1248.04 14.0058L1229.43 14.0012L1229.49 15.1019C1229.65 16.8932 1231.12 18.2422 1233.15 18.3462L1234.39 18.4005H1245.56L1230.67 31.6018L1230.73 32.7025C1230.85 34.5159 1232.33 35.8291 1234.39 35.9457V35.9469ZM1300.26 17.2212C1301.41 18.2426 1302.33 19.4552 1302.95 20.7898C1303.57 22.1244 1303.89 23.5548 1303.89 24.9994C1303.89 26.444 1303.57 27.8744 1302.95 29.209C1302.33 30.5436 1301.41 31.7562 1300.26 32.7776C1297.93 34.8399 1294.77 35.9983 1291.48 35.9983C1288.19 35.9983 1285.03 34.8399 1282.7 32.7776C1277.86 28.4823 1277.86 21.5166 1282.7 17.2212C1283.85 16.2002 1285.22 15.3902 1286.73 14.8375C1288.23 14.2848 1289.84 14.0002 1291.47 14C1293.1 13.999 1294.72 14.2831 1296.23 14.836C1297.74 15.3889 1299.11 16.1999 1300.26 17.2224V17.2212ZM1296.75 20.3362C1298.14 21.5744 1298.93 23.2531 1298.93 25.0035C1298.93 26.7538 1298.14 28.4326 1296.75 29.6707C1295.35 30.908 1293.46 31.6029 1291.48 31.6029C1289.51 31.6029 1287.61 30.908 1286.21 29.6707C1284.82 28.4326 1284.03 26.7538 1284.03 25.0035C1284.03 23.2531 1284.82 21.5744 1286.21 20.3362C1287.61 19.099 1289.51 18.404 1291.48 18.404C1293.46 18.404 1295.35 19.099 1296.75 20.3362ZM1265.43 14C1267.05 14.0004 1268.67 14.2851 1270.17 14.8381C1271.68 15.391 1273.04 16.2012 1274.2 17.2224C1279.04 21.5166 1279.04 28.4834 1274.2 32.7776C1271.87 34.8399 1268.71 35.9983 1265.42 35.9983C1262.13 35.9983 1258.97 34.8399 1256.64 32.7776C1251.79 28.4823 1251.79 21.5166 1256.64 17.2212C1257.79 16.2002 1259.16 15.3902 1260.66 14.8375C1262.17 14.2848 1263.78 14.0002 1265.41 14H1265.43ZM1270.68 20.3339C1272.08 21.5721 1272.86 23.2511 1272.86 25.0017C1272.86 26.7524 1272.08 28.4314 1270.68 29.6696C1269.29 30.9068 1267.39 31.6018 1265.42 31.6018C1263.44 31.6018 1261.55 30.9068 1260.15 29.6696C1258.76 28.4314 1257.97 26.7527 1257.97 25.0023C1257.97 23.252 1258.76 21.5732 1260.15 20.335C1261.55 19.0978 1263.44 18.4028 1265.42 18.4028C1267.39 18.4028 1269.29 19.0978 1270.68 20.335V20.3339Z" fill="#2D8CFF"/>
</g>
<defs>
<clipPath id="clip4_zoom">
<rect width="110.573" height="48" fill="white" transform="translate(1229.43)"/>
</clipPath>
</defs>
</svg>
